<?xml version="1.0" encoding="UTF-8"?><svg id="a" xmlns="http://www.w3.org/2000/svg" viewBox="0 0 50.72 26.02"><defs><style>.b{fill:#4e3216;}.c{fill:#25252e;}</style></defs><g><path class="c" d="M7.63,25.8v.21h-1.07v-1.51h1.05v.21h-.8v.43h.7v.2h-.7v.46h.82Z"/><path class="c" d="M9.03,24.85s-.04-.03-.06-.05c-.03-.02-.06-.03-.1-.05-.04-.02-.08-.03-.12-.04-.04,0-.09-.01-.14-.01-.1,0-.18,.02-.23,.05-.05,.04-.08,.09-.08,.15,0,.05,.01,.09,.04,.11,.03,.03,.07,.05,.13,.07s.13,.04,.22,.06c.11,.02,.2,.05,.27,.09,.08,.03,.14,.08,.18,.13,.04,.06,.06,.13,.06,.22,0,.08-.01,.14-.04,.2-.03,.06-.07,.1-.12,.14s-.11,.06-.18,.08c-.07,.02-.14,.02-.22,.02s-.15,0-.23-.02c-.08-.02-.15-.04-.22-.07-.07-.03-.13-.07-.19-.11l.11-.2s.05,.04,.08,.06,.08,.04,.13,.06c.05,.02,.1,.04,.16,.05,.06,.01,.11,.02,.17,.02,.1,0,.17-.02,.23-.05,.05-.03,.08-.08,.08-.14,0-.05-.02-.09-.05-.12-.03-.03-.08-.06-.15-.08-.06-.02-.14-.04-.23-.06-.1-.03-.19-.06-.26-.09-.07-.03-.12-.07-.16-.12-.03-.05-.05-.11-.05-.19,0-.1,.02-.18,.07-.25,.05-.07,.12-.12,.2-.16s.18-.05,.29-.05c.07,0,.14,0,.2,.02s.12,.04,.18,.06c.05,.03,.11,.05,.15,.09l-.11,.2Z"/><path class="c" d="M9.67,26.01v-1.51h.66c.07,0,.13,.01,.19,.04,.06,.03,.11,.07,.15,.11,.04,.05,.08,.1,.1,.16,.02,.06,.04,.12,.04,.18,0,.08-.02,.16-.06,.24s-.09,.14-.17,.18-.15,.07-.25,.07h-.42v.53h-.25Zm.25-.74h.41s.09-.01,.12-.04c.03-.02,.06-.06,.08-.1s.03-.09,.03-.15-.01-.1-.03-.15c-.02-.04-.05-.08-.09-.1s-.08-.04-.12-.04h-.39v.56Z"/><path class="c" d="M11.26,26.01v-1.51h.68c.07,0,.13,.01,.19,.04,.06,.03,.11,.07,.15,.11,.04,.05,.08,.1,.1,.16s.04,.12,.04,.18c0,.07-.01,.13-.04,.19-.03,.06-.06,.11-.11,.16-.05,.04-.1,.08-.16,.1l.37,.58h-.28l-.34-.53h-.36v.53h-.25Zm.25-.74h.43s.09-.01,.12-.04c.04-.03,.06-.06,.08-.1,.02-.04,.03-.09,.03-.14s-.01-.1-.03-.14c-.02-.04-.05-.08-.09-.1-.04-.03-.08-.04-.12-.04h-.42v.56Z"/><path class="c" d="M14,25.8v.21h-1.07v-1.51h1.05v.21h-.8v.43h.7v.2h-.7v.46h.82Z"/><path class="c" d="M15.4,24.85s-.04-.03-.06-.05c-.03-.02-.06-.03-.1-.05-.04-.02-.08-.03-.12-.04-.04,0-.09-.01-.14-.01-.1,0-.18,.02-.23,.05-.05,.04-.08,.09-.08,.15,0,.05,.01,.09,.04,.11,.03,.03,.07,.05,.13,.07s.13,.04,.22,.06c.11,.02,.2,.05,.27,.09,.08,.03,.14,.08,.18,.13,.04,.06,.06,.13,.06,.22,0,.08-.01,.14-.04,.2-.03,.06-.07,.1-.12,.14s-.11,.06-.18,.08c-.07,.02-.14,.02-.22,.02s-.15,0-.23-.02c-.08-.02-.15-.04-.22-.07-.07-.03-.13-.07-.19-.11l.11-.2s.05,.04,.08,.06,.08,.04,.13,.06c.05,.02,.1,.04,.16,.05,.06,.01,.11,.02,.17,.02,.1,0,.17-.02,.23-.05,.05-.03,.08-.08,.08-.14,0-.05-.02-.09-.05-.12-.03-.03-.08-.06-.15-.08-.06-.02-.14-.04-.23-.06-.1-.03-.19-.06-.26-.09-.07-.03-.12-.07-.16-.12-.03-.05-.05-.11-.05-.19,0-.1,.02-.18,.07-.25,.05-.07,.12-.12,.2-.16s.18-.05,.29-.05c.07,0,.14,0,.2,.02s.12,.04,.18,.06c.05,.03,.11,.05,.15,.09l-.11,.2Z"/><path class="c" d="M16.96,24.85s-.04-.03-.06-.05c-.03-.02-.06-.03-.1-.05-.04-.02-.08-.03-.12-.04-.04,0-.09-.01-.14-.01-.1,0-.18,.02-.23,.05-.05,.04-.08,.09-.08,.15,0,.05,.01,.09,.04,.11,.03,.03,.07,.05,.13,.07s.13,.04,.22,.06c.11,.02,.2,.05,.27,.09,.08,.03,.14,.08,.18,.13,.04,.06,.06,.13,.06,.22,0,.08-.01,.14-.04,.2-.03,.06-.07,.1-.12,.14s-.11,.06-.18,.08c-.07,.02-.14,.02-.22,.02s-.15,0-.23-.02c-.08-.02-.15-.04-.22-.07-.07-.03-.13-.07-.19-.11l.11-.2s.05,.04,.08,.06,.08,.04,.13,.06c.05,.02,.1,.04,.16,.05,.06,.01,.11,.02,.17,.02,.1,0,.17-.02,.23-.05,.05-.03,.08-.08,.08-.14,0-.05-.02-.09-.05-.12-.03-.03-.08-.06-.15-.08-.06-.02-.14-.04-.23-.06-.1-.03-.19-.06-.26-.09-.07-.03-.12-.07-.16-.12-.03-.05-.05-.11-.05-.19,0-.1,.02-.18,.07-.25,.05-.07,.12-.12,.2-.16s.18-.05,.29-.05c.07,0,.14,0,.2,.02s.12,.04,.18,.06c.05,.03,.11,.05,.15,.09l-.11,.2Z"/><path class="c" d="M18.25,26.02c-.11,0-.21-.02-.31-.06-.09-.04-.17-.1-.24-.17s-.12-.16-.15-.25c-.04-.09-.05-.19-.05-.28s.02-.2,.06-.29,.09-.17,.16-.25,.15-.13,.24-.17c.09-.04,.19-.06,.3-.06s.21,.02,.3,.07c.09,.04,.17,.1,.24,.18,.07,.07,.12,.16,.15,.25s.05,.18,.05,.28c0,.1-.02,.2-.06,.29-.04,.09-.09,.17-.16,.25-.07,.07-.15,.13-.24,.17-.09,.04-.19,.06-.3,.06Zm-.5-.77c0,.07,.01,.14,.03,.21,.02,.07,.06,.13,.1,.18,.04,.05,.1,.09,.16,.12,.06,.03,.13,.04,.21,.04s.15-.02,.21-.05,.11-.07,.15-.13c.04-.05,.07-.11,.1-.18,.02-.07,.03-.13,.03-.2,0-.07-.01-.14-.03-.21s-.06-.12-.1-.18c-.04-.05-.1-.09-.16-.12-.06-.03-.13-.04-.2-.04-.08,0-.15,.02-.21,.05-.06,.03-.11,.07-.16,.13s-.08,.11-.1,.18c-.02,.07-.03,.13-.03,.2Z"/><path class="c" d="M21.46,25.62c0,.08-.02,.15-.06,.21-.04,.06-.1,.1-.17,.13-.07,.03-.15,.05-.24,.05h-.75v-1.51h.8c.07,0,.14,.02,.19,.06,.05,.04,.09,.09,.12,.14,.03,.06,.04,.12,.04,.18,0,.07-.02,.14-.06,.21s-.09,.11-.17,.14c.09,.03,.16,.07,.21,.14,.05,.07,.08,.15,.08,.25Zm-.98-.92v.45h.45s.08,0,.11-.03c.03-.02,.06-.05,.08-.08,.02-.03,.03-.07,.03-.11s0-.08-.03-.12c-.02-.03-.04-.06-.07-.08s-.06-.03-.1-.03h-.47Zm.73,.87s0-.08-.03-.12-.04-.06-.08-.09-.07-.03-.11-.03h-.51v.46h.5s.08-.01,.12-.03c.03-.02,.06-.05,.08-.08,.02-.03,.03-.07,.03-.11Z"/><path class="c" d="M22.36,24.49h.23l.61,1.51h-.26l-.15-.41h-.62l-.15,.41h-.26l.61-1.51Zm.36,.93l-.25-.66-.25,.66h.49Z"/><path class="c" d="M23.61,26.01v-1.51h.68c.07,0,.13,.01,.19,.04,.06,.03,.11,.07,.15,.11,.04,.05,.08,.1,.1,.16s.04,.12,.04,.18c0,.07-.01,.13-.04,.19-.03,.06-.06,.11-.11,.16-.05,.04-.1,.08-.16,.1l.37,.58h-.28l-.34-.53h-.36v.53h-.25Zm.25-.74h.43s.09-.01,.12-.04c.04-.03,.06-.06,.08-.1,.02-.04,.03-.09,.03-.14s-.01-.1-.03-.14c-.02-.04-.05-.08-.09-.1-.04-.03-.08-.04-.12-.04h-.42v.56Z"/><path class="c" d="M27.08,26.01l-.75-.77c-.06-.06-.11-.12-.15-.16-.04-.05-.06-.09-.08-.12-.02-.04-.02-.08-.02-.12,0-.07,.02-.13,.05-.18s.09-.09,.15-.12c.06-.03,.13-.04,.21-.04,.07,0,.14,.01,.2,.04,.06,.02,.11,.06,.14,.11,.04,.05,.06,.1,.06,.17,0,.06-.02,.12-.05,.17-.04,.05-.08,.1-.14,.14-.06,.04-.12,.09-.2,.13-.06,.03-.11,.07-.15,.1-.05,.03-.08,.07-.11,.11-.03,.04-.04,.08-.04,.13s.01,.09,.04,.13c.03,.04,.07,.07,.11,.09s.1,.03,.15,.03c.07,0,.13-.02,.2-.05,.06-.03,.12-.08,.17-.13,.05-.06,.09-.13,.11-.2s.04-.16,.04-.26h.2c0,.12-.02,.24-.06,.34-.04,.1-.09,.19-.16,.26-.07,.07-.15,.13-.24,.17s-.18,.06-.28,.06-.19-.02-.27-.06c-.08-.04-.14-.09-.18-.15-.04-.06-.06-.14-.06-.22s.02-.15,.06-.21,.09-.11,.15-.16,.12-.09,.18-.12c.06-.04,.12-.07,.17-.1s.08-.06,.11-.09c.03-.03,.04-.07,.04-.1,0-.04-.02-.08-.05-.11s-.08-.04-.13-.04c-.04,0-.07,0-.1,.02s-.05,.04-.07,.06c-.02,.02-.02,.05-.02,.08,0,.02,0,.04,.02,.06s.03,.05,.07,.08c.03,.03,.08,.08,.13,.14l.88,.89h-.32Z"/><path class="c" d="M28.56,26.01v-1.51h1.04v.21h-.79v.45h.66v.2h-.66v.65h-.25Z"/><path class="c" d="M30.05,26.01v-1.51h.25v1.51h-.25Z"/><path class="c" d="M31.11,24.94v1.07h-.25v-1.51h.2l.88,1.09v-1.09h.25v1.51h-.22l-.87-1.07Z"/><path class="c" d="M33.84,25.8v.21h-1.07v-1.51h1.05v.21h-.8v.43h.7v.2h-.7v.46h.82Z"/><path class="c" d="M35.08,26.01v-1.51h1.04v.21h-.79v.45h.66v.2h-.66v.65h-.25Z"/><path class="c" d="M37.2,26.02c-.11,0-.21-.02-.31-.06-.09-.04-.17-.1-.24-.17s-.12-.16-.15-.25c-.04-.09-.05-.19-.05-.28s.02-.2,.06-.29,.09-.17,.16-.25,.15-.13,.24-.17c.09-.04,.19-.06,.3-.06s.21,.02,.3,.07c.09,.04,.17,.1,.24,.18,.07,.07,.12,.16,.15,.25s.05,.18,.05,.28c0,.1-.02,.2-.06,.29-.04,.09-.09,.17-.16,.25-.07,.07-.15,.13-.24,.17-.09,.04-.19,.06-.3,.06Zm-.5-.77c0,.07,.01,.14,.03,.21,.02,.07,.06,.13,.1,.18,.04,.05,.1,.09,.16,.12,.06,.03,.13,.04,.21,.04s.15-.02,.21-.05,.11-.07,.15-.13c.04-.05,.07-.11,.1-.18,.02-.07,.03-.13,.03-.2,0-.07-.01-.14-.03-.21s-.06-.12-.1-.18c-.04-.05-.1-.09-.16-.12-.06-.03-.13-.04-.2-.04-.08,0-.15,.02-.21,.05-.06,.03-.11,.07-.16,.13s-.08,.11-.1,.18c-.02,.07-.03,.13-.03,.2Z"/><path class="c" d="M39.07,26.02c-.11,0-.21-.02-.31-.06-.09-.04-.17-.1-.24-.17s-.12-.16-.15-.25c-.04-.09-.05-.19-.05-.28s.02-.2,.06-.29,.09-.17,.16-.25,.15-.13,.24-.17c.09-.04,.19-.06,.3-.06s.21,.02,.3,.07c.09,.04,.17,.1,.24,.18,.07,.07,.12,.16,.15,.25s.05,.18,.05,.28c0,.1-.02,.2-.06,.29-.04,.09-.09,.17-.16,.25-.07,.07-.15,.13-.24,.17-.09,.04-.19,.06-.3,.06Zm-.5-.77c0,.07,.01,.14,.03,.21,.02,.07,.06,.13,.1,.18,.04,.05,.1,.09,.16,.12,.06,.03,.13,.04,.21,.04s.15-.02,.21-.05,.11-.07,.15-.13c.04-.05,.07-.11,.1-.18,.02-.07,.03-.13,.03-.2,0-.07-.01-.14-.03-.21s-.06-.12-.1-.18c-.04-.05-.1-.09-.16-.12-.06-.03-.13-.04-.2-.04-.08,0-.15,.02-.21,.05-.06,.03-.11,.07-.16,.13s-.08,.11-.1,.18c-.02,.07-.03,.13-.03,.2Z"/><path class="c" d="M40.29,26.01v-1.51h.55c.17,0,.31,.03,.42,.1s.2,.16,.25,.27c.06,.11,.08,.24,.08,.38,0,.15-.03,.29-.09,.4-.06,.11-.15,.2-.26,.26s-.25,.09-.4,.09h-.55Zm1.06-.76c0-.11-.02-.2-.06-.28-.04-.08-.1-.15-.17-.19-.08-.05-.17-.07-.28-.07h-.31v1.09h.31c.11,0,.2-.02,.28-.07,.08-.05,.13-.11,.17-.2s.06-.18,.06-.28Z"/></g><path class="b" d="M0,19.16V0H5.17c2.87,0,5.2,2.74,5.2,6.11s-2.34,6.14-5.2,6.14H1.56v6.92H0Zm1.56-7.23h3.61c1.99,0,3.61-2.62,3.61-5.83S7.17,.31,5.17,.31H1.56V11.94Z"/><path class="b" d="M16.14,9.41c1.28,0,2.43,.5,3.3,1.31v-.44c0-2.03-1.53-3.68-3.4-3.68h-.56c-1.09,.12-2.15,.81-2.74,1.81l-.03,.06h-.78l.19-.25c.78-1.09,1.99-1.81,3.33-1.93h.69c2.62,0,4.89,2.12,4.89,4.58v8.29h-1.59v-1.28c-.87,.78-2.03,1.28-3.3,1.28-2.68,0-4.86-2.18-4.86-4.86s2.21-4.89,4.86-4.89Zm-3.61,4.86c.44,1.81,2.43,4.39,4.49,4.39,2.31,0,2.43-3.74,2.43-5.33,0-.97-1.87-3.27-4.3-3.27s-3.05,2.24-2.62,4.21Z"/><path class="b" d="M23.2,0h1.56V7.48c1.03-.78,2.24-1.18,3.46-1.18,3.3,0,5.98,2.87,5.98,6.42s-2.68,6.45-5.98,6.45c-1.22,0-2.43-.44-3.46-1.18v1.18h-1.56V0Zm5.98,18.51c1.09,0,2.03-.44,2.74-1.25,.94-1.12,1.31-2.74,1.03-4.52-.44-2.71-2.68-5.83-5.67-5.83-.97,0-1.84,.37-2.52,1.03v4.55c.12,3.15,.72,6.01,4.42,6.01Z"/><path class="b" d="M37.49,0V19.16h-1.56V0h1.56Z"/><path class="b" d="M50.72,12.71c0,3.55-2.68,6.45-5.95,6.45s-5.98-2.9-5.98-6.45,2.68-6.42,5.98-6.42,5.95,2.87,5.95,6.42Zm-1.25,.03c-.5-3.21-3.05-5.83-5.67-5.83-1.09,0-2.03,.44-2.74,1.28-.93,1.09-1.31,2.74-1.03,4.49,.5,3.24,3.05,5.83,5.67,5.83,1.09,0,2.03-.44,2.74-1.25,.93-1.12,1.31-2.74,1.03-4.52Z"/></svg>